<svg height="512" viewBox="0 0 32 32" width="512" xmlns="http://www.w3.org/2000/svg"><g id="Layer_2" data-name="Layer 2"><path d="m16 18.025a.752.752 0 0 1 -.43-.135l-7.32-5.124v8.766a.944.944 0 0 0 .943.943h13.614a.944.944 0 0 0 .943-.943v-8.766l-7.32 5.124a.752.752 0 0 1 -.43.135z"/><path d="m22.807 9.525h-13.614a.944.944 0 0 0 -.943.943v.467l7.75 5.425 7.75-5.425v-.467a.944.944 0 0 0 -.943-.943z"/><path d="m16 .893a15.107 15.107 0 1 0 15.107 15.107 15.107 15.107 0 0 0 -15.107-15.107zm9.25 20.639a2.446 2.446 0 0 1 -2.443 2.443h-13.614a2.446 2.446 0 0 1 -2.443-2.443v-11.064a2.446 2.446 0 0 1 2.443-2.443h13.614a2.446 2.446 0 0 1 2.443 2.443z"/></g></svg>